<?xml version="1.0" encoding="utf-8"?>
<!-- Generator: Adobe Illustrator 16.0.0, SVG Export Plug-In . SVG Version: 6.00 Build 0)  -->
<!DOCTYPE svg PUBLIC "-//W3C//DTD SVG 1.1//EN" "http://www.w3.org/Graphics/SVG/1.1/DTD/svg11.dtd">
<svg version="1.1" id="Layer_1" xmlns="http://www.w3.org/2000/svg" xmlns:xlink="http://www.w3.org/1999/xlink" x="0px" y="0px"
	 width="176.882px" height="29.338px" viewBox="0 0 176.882 29.338" enable-background="new 0 0 176.882 29.338"
	 xml:space="preserve">
<g>
	<path fill="#0078E1" d="M54.465,16.115h-0.046c0-0.021-1.336-5.849-1.336-5.849l-1.644,0.003c0,0-1.339,5.813-1.339,5.846h-0.081
		l-1.252-5.849h-1.732l2.115,8.711l1.72-0.004c0,0,1.345-5.825,1.368-5.896l0.045,0.005c0.012,0.099,1.376,5.891,1.376,5.891h1.723
		l2.062-8.706h-1.71C55.734,10.268,54.491,16.015,54.465,16.115z"/>
	<polygon fill="#0078E1" points="63.434,15.298 66.128,15.295 66.128,13.702 63.412,13.702 63.412,11.864 67.372,11.864 
		67.372,10.27 61.508,10.267 61.508,18.974 67.651,18.978 67.651,17.349 63.438,17.349 	"/>
	<path fill="#0078E1" d="M77.518,14.958c-0.135-0.157-0.277-0.291-0.456-0.373c-0.147-0.088-0.302-0.145-0.454-0.176v-0.054
		c0.225-0.055,0.434-0.165,0.605-0.322c0.184-0.16,0.332-0.373,0.436-0.64c0.101-0.263,0.152-0.572,0.152-0.919
		c0-0.248-0.031-0.486-0.095-0.706c-0.066-0.245-0.175-0.451-0.31-0.656c-0.142-0.198-0.315-0.353-0.534-0.488
		c-0.256-0.152-0.557-0.253-0.891-0.297c-0.335-0.04-0.688-0.062-1.079-0.058h-2.872v8.709l2.816-0.006
		c0.363,0.006,0.694-0.018,0.993-0.039c0.294-0.036,0.565-0.084,0.805-0.196c0.247-0.093,0.475-0.253,0.685-0.458
		c0.193-0.187,0.329-0.391,0.433-0.608c0.104-0.203,0.166-0.406,0.2-0.625c0.03-0.212,0.045-0.425,0.045-0.642
		c-0.01-0.32-0.045-0.593-0.137-0.835C77.771,15.327,77.663,15.125,77.518,14.958z M73.89,11.604h0.863c0.102,0,0.22,0,0.351,0.023
		c0.125,0.005,0.254,0.054,0.389,0.113c0.121,0.059,0.226,0.168,0.3,0.313c0.083,0.151,0.127,0.35,0.135,0.607
		c0,0.278-0.035,0.485-0.101,0.646c-0.071,0.145-0.187,0.269-0.348,0.333c-0.151,0.087-0.365,0.126-0.625,0.139
		c-0.261,0.031-0.584,0.031-0.964,0.031V11.604z M75.741,17.306c-0.218,0.192-0.518,0.287-0.901,0.287H73.89v-2.447
		c0.221,0.008,0.447,0.008,0.663,0.008c0.216,0.008,0.407,0.016,0.571,0.029c0.163,0.009,0.301,0.036,0.391,0.08
		c0.146,0.057,0.273,0.149,0.345,0.271c0.082,0.113,0.143,0.244,0.174,0.39c0.032,0.146,0.042,0.291,0.037,0.428
		C76.07,16.794,75.955,17.101,75.741,17.306z"/>
	<path fill="#0078E1" d="M84.021,10.27l-2.46,8.704l1.867,0.004l0.453-1.745h2.67l0.439,1.745h1.867l-2.534-8.711L84.021,10.27z
		 M84.208,15.757l0.946-3.941h0.049l0.971,3.941H84.208z"/>
	<polygon fill="#0078E1" points="91.653,11.864 93.876,11.864 93.876,18.974 95.873,18.974 95.873,11.864 98.035,11.864 
		98.042,10.27 91.653,10.267 	"/>
	<path fill="#0078E1" d="M106.314,15.9l-0.048-0.008c-0.018-0.034-1.547-5.626-1.547-5.626l-2.571,0.003l0.006,8.704l1.644,0.004
		c0,0-0.013-5.345-0.013-5.571c-0.011-0.218-0.061-1.521-0.062-1.591l0.062-0.01l1.852,7.172h1.319l1.804-7.162h0.036
		c-0.002,0.27-0.056,1.454-0.066,1.738c-0.006,0.285-0.006,5.424-0.006,5.424h1.671v-8.711l-2.572,0.003
		C107.822,10.27,106.368,15.664,106.314,15.9z"/>
	<path fill="#0078E1" d="M120.682,11.562c-0.105-0.244-0.246-0.45-0.408-0.612c-0.292-0.312-0.638-0.533-1.032-0.662
		c-0.394-0.119-0.807-0.191-1.256-0.184c-0.28-0.008-0.554,0.026-0.815,0.076c-0.269,0.058-0.516,0.142-0.741,0.269
		c-0.242,0.124-0.453,0.275-0.628,0.485c-0.214,0.224-0.354,0.456-0.482,0.725c-0.101,0.25-0.176,0.526-0.223,0.81
		c-0.038,0.282-0.057,0.574-0.057,0.868v2.337c0,0.131,0,0.289,0.019,0.494c0.018,0.188,0.024,0.404,0.064,0.619
		c0.027,0.22,0.073,0.431,0.146,0.639c0.109,0.357,0.27,0.667,0.479,0.9c0.206,0.232,0.443,0.41,0.707,0.543
		c0.264,0.124,0.522,0.217,0.782,0.265c0.257,0.055,0.5,0.068,0.717,0.068c0.147,0,0.311-0.002,0.499-0.031
		c0.195-0.006,0.396-0.049,0.604-0.102c0.215-0.063,0.432-0.147,0.63-0.267c0.214-0.111,0.413-0.271,0.601-0.46
		c0.176-0.203,0.325-0.41,0.436-0.673c0.11-0.244,0.193-0.527,0.235-0.841c0.05-0.319,0.069-0.683,0.069-1.082v-2.115
		c0-0.467-0.02-0.863-0.083-1.188C120.891,12.085,120.795,11.816,120.682,11.562z M119.053,16.074c0,0.144-0.009,0.323-0.02,0.498
		c-0.012,0.162-0.053,0.338-0.12,0.501c-0.055,0.157-0.153,0.284-0.294,0.394c-0.146,0.105-0.345,0.152-0.597,0.165
		c-0.286-0.013-0.501-0.08-0.655-0.206c-0.147-0.128-0.252-0.307-0.307-0.546c-0.051-0.239-0.082-0.517-0.077-0.809l-0.005-3.028
		c0-0.093,0.005-0.199,0.01-0.358c0.021-0.146,0.06-0.286,0.127-0.448c0.062-0.152,0.157-0.271,0.316-0.375
		c0.139-0.094,0.35-0.155,0.597-0.167c0.268,0.012,0.455,0.053,0.595,0.127c0.139,0.086,0.235,0.194,0.294,0.32
		c0.063,0.133,0.104,0.277,0.116,0.437c0.011,0.147,0.02,0.304,0.02,0.463V16.074z"/>
	<path fill="#0078E1" d="M130.895,15.231c-0.065-0.145-0.116-0.232-0.161-0.281c-0.126-0.154-0.271-0.302-0.428-0.432
		c-0.157-0.128-0.342-0.243-0.518-0.343c-0.188-0.103-0.368-0.181-0.544-0.243l-1.104-0.406c-0.188-0.065-0.363-0.132-0.535-0.218
		c-0.157-0.084-0.301-0.193-0.406-0.335c-0.109-0.121-0.157-0.292-0.164-0.498c0-0.026,0.007-0.086,0.026-0.176
		c0.008-0.084,0.046-0.179,0.109-0.281c0.061-0.108,0.167-0.199,0.302-0.27c0.146-0.075,0.332-0.115,0.588-0.115
		c0.223,0,0.445,0.049,0.627,0.138c0.201,0.092,0.372,0.201,0.513,0.351c0.146,0.15,0.268,0.306,0.362,0.483l1.441-0.945
		c-0.355-0.527-0.763-0.928-1.237-1.174c-0.475-0.263-1.024-0.394-1.66-0.394c-0.595,0-1.107,0.115-1.527,0.319
		c-0.435,0.214-0.746,0.5-0.97,0.868c-0.228,0.368-0.341,0.799-0.341,1.275c0,0.431,0.066,0.798,0.198,1.085
		c0.129,0.314,0.302,0.574,0.535,0.771c0.232,0.216,0.477,0.394,0.784,0.541c0.294,0.15,0.603,0.29,0.943,0.415
		c0.324,0.129,0.594,0.224,0.81,0.331c0.211,0.088,0.383,0.184,0.506,0.268c0.114,0.096,0.216,0.185,0.274,0.296
		c0.04,0.104,0.073,0.251,0.073,0.406c-0.017,0.198-0.061,0.363-0.132,0.495c-0.079,0.129-0.184,0.222-0.294,0.29
		c-0.137,0.079-0.259,0.128-0.392,0.156c-0.131,0.029-0.244,0.051-0.363,0.051c-0.369-0.014-0.696-0.107-0.982-0.317
		c-0.272-0.217-0.489-0.507-0.652-0.874l-1.499,0.979c0.258,0.467,0.54,0.821,0.852,1.085c0.309,0.258,0.646,0.441,1.037,0.537
		c0.376,0.1,0.83,0.146,1.332,0.146c0.15,0,0.327-0.012,0.517-0.043c0.195-0.033,0.4-0.082,0.603-0.138
		c0.195-0.062,0.392-0.15,0.562-0.261c0.304-0.188,0.536-0.398,0.71-0.617c0.178-0.217,0.289-0.439,0.368-0.657
		c0.073-0.228,0.134-0.42,0.135-0.6c0.021-0.186,0.021-0.317,0.021-0.415c0-0.276-0.027-0.521-0.105-0.733
		C131.058,15.535,130.978,15.365,130.895,15.231z"/>
	<polygon fill="#0078E1" points="135.23,18.978 137.155,18.978 137.155,15.342 139.73,15.347 139.73,13.73 137.155,13.73 
		137.155,11.864 141.032,11.864 141.032,10.27 135.23,10.27 	"/>
	<polygon fill="#0078E1" points="147.038,17.349 147.038,15.298 149.741,15.298 149.748,13.702 147.024,13.702 147.024,11.864 
		150.976,11.864 150.976,10.267 145.122,10.27 145.122,18.978 151.247,18.978 151.243,17.349 	"/>
	<path fill="#0078E1" d="M160.877,14.589c0.246-0.219,0.419-0.48,0.529-0.781c0.102-0.311,0.153-0.646,0.151-1.014
		c0-0.461-0.065-0.845-0.197-1.162c-0.126-0.307-0.307-0.548-0.521-0.735c-0.217-0.179-0.473-0.324-0.755-0.411
		c-0.265-0.09-0.551-0.159-0.86-0.175c-0.288-0.029-0.587-0.047-0.868-0.044l-2.816,0.003v8.708h1.886v-3.564h0.646l1.659,3.561
		l2.066,0.004l-1.894-3.865C160.301,14.979,160.64,14.803,160.877,14.589z M159.563,13.232c-0.021,0.149-0.082,0.293-0.176,0.405
		c-0.088,0.131-0.235,0.22-0.442,0.294c-0.07,0.024-0.122,0.033-0.2,0.051c-0.062,0.016-0.147,0.025-0.246,0.025
		c-0.107,0.013-0.248,0.013-0.41,0.013c-0.17,0.012-0.389,0.006-0.662,0.006v-2.399c0.261,0,0.49,0,0.67,0
		c0.176,0,0.314,0,0.425,0.005c0.114,0.009,0.208,0.026,0.292,0.036c0.078,0.013,0.146,0.039,0.213,0.059
		c0.196,0.062,0.342,0.182,0.429,0.35c0.093,0.161,0.147,0.393,0.147,0.692C159.602,12.938,159.602,13.089,159.563,13.232z"/>
	<path fill="#0078E1" d="M170.058,10.27l-2.302-0.003l-2.464,8.711h1.861l0.458-1.745h2.662l0.446,1.745l1.859-0.004L170.058,10.27z
		 M167.94,15.757l0.948-3.938l0.046-0.003l0.964,3.941H167.94z"/>
	<path fill="#0078E1" d="M0,29.339h29.338V0H0V29.339z M1.602,1.602h26.135v26.136H1.602V1.602z"/>
	<polygon fill="#0078E1" points="17.804,9.883 16.031,16.521 14.268,9.883 12.348,9.883 10.579,16.521 8.811,9.883 6.893,9.883 
		9.622,19.456 11.538,19.456 13.304,12.817 15.077,19.456 16.994,19.456 18.764,12.817 20.532,19.456 22.446,19.456 19.72,9.883 	
		"/>
</g>
</svg>
